<svg width="1000" height="1000" viewBox="0 0 1000 1000" fill="none" xmlns="http://www.w3.org/2000/svg">
<path d="M217.248 815.18L221.438 808.928L247.035 826.084L260.341 806.23L239.559 792.302L243.748 786.05L264.531 799.979L282.309 773.452L289.997 778.604L250.533 837.488L217.248 815.18Z" fill="black"/>
<path d="M181.404 768.984L214.797 739.044C219.492 734.835 221.956 730.576 222.191 726.268C222.381 721.909 220.643 717.685 216.976 713.596C213.355 709.557 209.391 707.421 205.082 707.186C200.729 706.901 196.205 708.863 191.51 713.072L158.117 743.012L151.939 736.122L185.256 706.249C189.648 702.312 194.15 699.868 198.763 698.919C203.326 698.016 207.697 698.422 211.876 700.138C216.011 701.804 219.753 704.505 223.102 708.24C226.451 711.976 228.752 716.014 230.004 720.356C231.21 724.647 231.116 729.011 229.722 733.448C228.232 737.88 225.291 742.065 220.899 746.002L187.583 775.875L181.404 768.984Z" fill="black"/>
<path d="M172.805 644.922L163.004 622.125L169.918 619.153L183.374 650.452L118.253 678.45L114.598 669.948L172.805 644.922Z" fill="black"/>
<path d="M148.754 566.221L143.756 541.915L151.127 540.399L157.99 573.77L88.5582 588.049L86.694 578.984L148.754 566.221Z" fill="black"/>
<path d="M104.822 456.028L112.649 456.276L111.36 496.834L103.533 496.585L104.822 456.028Z" fill="black"/>
<path d="M166.691 390.648C165.384 395.14 163.429 398.949 160.825 402.075C158.175 405.117 155.156 407.24 151.77 408.444C148.318 409.629 144.728 409.714 140.998 408.699L143.753 399.227C147.038 399.83 150.119 399.314 152.995 397.679C155.825 395.96 157.884 392.887 159.172 388.461C160.403 384.229 160.327 380.606 158.944 377.591C157.516 374.492 155.141 372.46 151.821 371.494C149.217 370.736 146.893 370.837 144.849 371.796C142.805 372.755 141.047 374.185 139.576 376.087C138.104 377.989 136.35 380.621 134.313 383.983C131.835 388.134 129.612 391.406 127.644 393.8C125.696 396.128 123.201 397.909 120.159 399.142C117.071 400.291 113.411 400.25 109.179 399.02C105.469 397.94 102.456 396.04 100.14 393.318C97.8251 390.597 96.3787 387.317 95.801 383.477C95.2423 379.572 95.6069 375.406 96.8947 370.979C98.7506 364.599 101.861 359.855 106.225 356.747C110.608 353.574 115.512 352.493 120.937 353.507L118.096 363.272C115.397 362.84 112.721 363.544 110.067 365.385C107.348 367.206 105.411 370.103 104.256 374.074C103.176 377.785 103.272 381.096 104.544 384.008C105.75 386.901 108.078 388.849 111.528 389.853C114.002 390.572 116.219 390.476 118.179 389.563C120.158 388.586 121.865 387.211 123.298 385.439C124.685 383.583 126.439 380.951 128.561 377.543C131.104 373.411 133.392 370.158 135.425 367.783C137.392 365.39 139.929 363.586 143.036 362.372C146.078 361.138 149.747 361.146 154.044 362.396C157.364 363.362 160.233 365.15 162.652 367.76C165.07 370.37 166.689 373.665 167.508 377.646C168.327 381.627 168.055 385.961 166.691 390.648Z" fill="black"/>
<path d="M160.567 252.651L167.015 256.532L157.052 273.088L211.338 305.758L206.566 313.687L152.28 281.017L142.264 297.66L135.815 293.78L160.567 252.651Z" fill="black"/>
<path d="M265.343 219.593L242.932 240.89L249.663 256.241L242.585 262.966L212.613 194.223L220.354 186.867L287.408 220.371L280.331 227.097L265.343 219.593ZM258.242 215.959L224.293 198.836L239.665 233.614L258.242 215.959Z" fill="black"/>
<path d="M302.609 174.826C298.388 169.348 295.837 163.482 294.956 157.229C294.033 150.921 294.741 144.898 297.08 139.158C299.473 133.377 303.275 128.479 308.484 124.465C314.607 119.748 321.088 117.107 327.929 116.544C334.77 115.98 341.328 117.603 347.602 121.414L338.821 128.18C334.657 125.996 330.394 125.13 326.033 125.58C321.726 125.988 317.532 127.765 313.45 130.91C309.529 133.931 306.715 137.554 305.007 141.781C303.299 146.007 302.862 150.494 303.697 155.244C304.491 159.939 306.625 164.542 310.101 169.054C313.536 173.511 317.443 176.749 321.822 178.767C326.16 180.731 330.59 181.426 335.112 180.852C339.634 180.278 343.856 178.48 347.776 175.46C351.858 172.315 354.666 168.739 356.2 164.732C357.747 160.63 357.996 156.287 356.946 151.703L365.727 144.937C367.771 151.922 367.648 158.65 365.359 165.121C363.029 171.539 358.802 177.106 352.68 181.824C347.47 185.838 341.786 188.292 335.628 189.185C329.481 189.984 323.497 189.16 317.674 186.713C311.852 184.267 306.83 180.304 302.609 174.826Z" fill="black"/>
<path d="M450.559 152.272L415.282 126.712L422.01 158.345L412.958 160.27L398.21 90.9365L407.262 89.011L414.097 121.141L435.911 82.9171L447.35 80.4837L423.301 121.887L462.397 149.754L450.559 152.272Z" fill="black"/>
<path d="M684.97 106.078L650.49 171.33L640.332 169.228L635.758 110.02L607.467 162.428L597.388 160.447L592.351 86.9145L602.011 88.9132L604.97 150.903L633.88 95.5072L644.038 97.609L647.836 159.565L675.21 104.059L684.97 106.078Z" fill="black"/>
<path d="M719.342 144.767L707.934 165.536L730.575 177.973L726.902 184.658L704.262 172.221L692.51 193.614L717.825 207.52L714.153 214.205L680.727 195.844L714.903 133.626L748.329 151.987L744.657 158.673L719.342 144.767Z" fill="black"/>
<path d="M803.795 249.148C805.38 251.219 806.35 253.593 806.703 256.27C807.106 258.994 806.885 261.685 806.039 264.343C805.242 267.048 803.862 269.432 801.899 271.495C799.421 274.097 796.514 275.824 793.178 276.673C789.889 277.473 786.383 277.272 782.661 276.069C779.035 274.863 775.503 272.624 772.065 269.352L752.913 251.12L801.788 199.779L820.203 217.309C823.69 220.628 826.1 224.046 827.433 227.562C828.813 231.029 829.182 234.328 828.54 237.461C827.898 240.594 826.408 243.389 824.071 245.844C821.172 248.889 817.93 250.623 814.344 251.047C810.853 251.468 807.337 250.836 803.795 249.148ZM787.385 228.332L798.655 239.06C801.798 242.052 804.93 243.629 808.051 243.792C811.172 243.955 813.971 242.736 816.449 240.133C818.927 237.53 820.007 234.674 819.691 231.565C819.375 228.455 817.596 225.358 814.355 222.273L803.232 211.684L787.385 228.332ZM776.735 263.266C780.074 266.445 783.425 268.137 786.787 268.342C790.149 268.547 793.162 267.25 795.827 264.451C798.538 261.603 799.683 258.433 799.261 254.943C798.887 251.403 797.054 248.067 793.764 244.935L782.126 233.856L764.876 251.977L776.735 263.266Z" fill="black"/>
<path d="M911.53 381.925C914.214 389.173 915.166 395.942 914.386 402.231C913.694 408.561 911.354 414.055 907.367 418.712C903.404 423.433 898.02 427.054 891.217 429.573C884.414 432.092 877.971 432.851 871.889 431.85C865.894 430.889 860.572 428.232 855.924 423.881C851.363 419.569 847.74 413.789 845.056 406.54L837.393 385.845L903.866 361.229L911.53 381.925ZM852.209 403.892C855.388 412.475 860.07 418.188 866.256 421.031C872.505 423.85 879.731 423.741 887.933 420.703C896.198 417.643 901.804 412.964 904.75 406.667C907.72 400.434 907.627 393.058 904.472 384.538L900.022 372.521L847.759 391.875L852.209 403.892Z" fill="black"/>
<path d="M919.141 485.591L895.587 488.183L898.413 513.86L890.831 514.695L888.005 489.018L863.744 491.688L866.903 520.397L859.322 521.232L855.15 483.323L925.71 475.558L929.882 513.467L922.3 514.301L919.141 485.591Z" fill="black"/>
<path d="M906.565 638.445L840.438 601.468L842.024 590.908L916.094 574.984L914.63 584.74L850.878 597.689L908.015 628.79L906.565 638.445Z" fill="black"/>
<path d="M875.437 684.763L853.545 675.695L843.66 699.56L836.613 696.641L846.498 672.776L823.948 663.435L812.895 690.12L805.848 687.201L820.443 651.966L886.026 679.132L871.431 714.366L864.384 711.447L875.437 684.763Z" fill="black"/>
<path d="M776.728 739.264L759.141 756.771L753.832 751.437L777.977 727.401L827.986 777.638L821.428 784.167L776.728 739.264Z" fill="black"/>
<path d="M697.955 795.931C703.047 791.769 708.659 789.153 714.789 788.083C720.963 787.065 727.021 787.674 732.963 789.91C738.897 792.241 744.051 796.084 748.428 801.438C752.804 806.793 755.523 812.583 756.584 818.809C757.635 825.13 757.026 831.188 754.757 836.983C752.531 842.831 748.872 847.835 743.779 851.997C738.635 856.202 732.976 858.813 726.802 859.831C720.672 860.901 714.661 860.297 708.771 858.019C702.881 855.74 697.726 851.897 693.307 846.49C688.887 841.083 686.147 835.266 685.087 829.041C684.026 822.815 684.609 816.778 686.835 810.931C689.104 805.136 692.811 800.136 697.955 795.931ZM703.04 802.152C699.207 805.284 696.498 808.987 694.912 813.26C693.274 817.577 692.94 822.096 693.911 826.82C694.829 831.586 697.069 836.147 700.63 840.505C704.234 844.914 708.259 848.017 712.704 849.813C717.139 851.704 721.609 852.298 726.113 851.595C730.616 850.891 734.81 848.951 738.695 845.776C742.58 842.601 745.315 838.877 746.901 834.604C748.487 830.33 748.821 825.81 747.903 821.044C746.975 816.374 744.709 811.833 741.105 807.424C737.543 803.066 733.545 799.942 729.11 798.051C724.622 796.202 720.126 795.63 715.622 796.334C711.066 797.08 706.872 799.02 703.04 802.152Z" fill="black"/>
<path d="M613.986 891.832C611.465 886.499 611.202 881.186 613.198 875.892C615.162 870.688 619.883 866.318 627.361 862.782L639.68 856.956L627.028 830.202L635.395 826.246L665.699 890.326L645.013 900.109C637.781 903.529 631.469 904.377 626.078 902.651C620.626 900.954 616.595 897.348 613.986 891.832ZM630.622 869.677C625.963 871.88 623.009 874.515 621.759 877.581C620.509 880.647 620.768 884.05 622.537 887.788C626.276 895.695 632.681 897.503 641.752 893.213L654.072 887.387L642.941 863.851L630.622 869.677Z" fill="black"/>
<path d="M559.93 909.214L555.243 885.987L529.921 891.097L528.412 883.62L553.734 878.51L548.905 854.584L520.593 860.298L519.084 852.821L556.468 845.277L570.511 914.86L533.127 922.405L531.618 914.928L559.93 909.214Z" fill="black"/>
<path d="M430.478 844.335L445.606 874.272L456.773 874.938L458.497 846.005L467.735 846.555L463.519 917.314L440.677 915.953C435.33 915.635 430.884 914.453 427.338 912.408C423.725 910.359 421.097 907.723 419.455 904.501C417.813 901.279 417.111 897.671 417.349 893.678C417.64 888.805 419.317 884.592 422.381 881.039C425.378 877.482 429.722 875.262 435.412 874.378L419.412 843.676L430.478 844.335ZM456.331 882.349L442.728 881.538C437.72 881.24 433.891 882.234 431.241 884.521C428.588 886.876 427.138 890.118 426.892 894.246C426.642 898.443 427.701 901.766 430.068 904.216C432.367 906.663 436.055 908.037 441.131 908.339L454.735 909.15L456.331 882.349Z" fill="black"/>
</svg>
