<svg width="84" height="84" viewBox="0 0 84 84" fill="none" xmlns="http://www.w3.org/2000/svg">
<path fill-rule="evenodd" clip-rule="evenodd" d="M61.7061 7.64982C61.3534 5.94025 62.1169 4.19332 63.6149 3.29704C65.1128 2.40076 67.0133 2.55014 68.3535 3.67049C77.5611 12.1229 83.4036 24.231 83.4036 37.696C83.4036 62.8872 62.9509 83.3399 37.7597 83.3399C24.2947 83.3399 12.1866 77.4974 3.82964 68.211C2.74664 66.9122 2.60141 65.0699 3.47279 63.6175C4.34002 62.1652 6.033 61.4225 7.68863 61.7627C10.7177 62.2648 13.8257 62.5926 17.0124 62.5926C42.2037 62.5926 62.6563 42.14 62.6563 16.9487C62.6563 13.7619 62.3285 10.654 61.7061 7.64982Z" fill="black"/>
<path fill-rule="evenodd" clip-rule="evenodd" d="M41.2461 16.683C41.6372 16.6073 41.9148 16.2666 41.9085 15.8692C41.9148 15.4718 41.6372 15.1312 41.2461 15.0555C40.1485 14.841 38.9185 14.595 37.6821 14.3427C32.7555 13.3523 28.9076 9.50436 27.9172 4.57775C27.6649 3.34137 27.4188 2.11129 27.2044 1.01369C27.1287 0.622589 26.788 0.345048 26.3906 0.351356C25.9932 0.345048 25.6526 0.622589 25.5769 1.01369C25.3624 2.11129 25.1164 3.34137 24.8641 4.57775C23.8737 9.50436 20.0258 13.3523 15.0992 14.3427C13.8628 14.595 12.6327 14.841 11.5351 15.0555C11.144 15.1312 10.8665 15.4718 10.8728 15.8692C10.8665 16.2666 11.144 16.6073 11.5351 16.683C12.6327 16.8974 13.8628 17.1434 15.0992 17.3958C20.0258 18.3861 23.8737 22.2341 24.8641 27.1607C25.1164 28.3971 25.3624 29.6271 25.5769 30.7247C25.6526 31.1158 25.9932 31.3934 26.3906 31.3871C26.788 31.3934 27.1287 31.1158 27.2044 30.7247C27.4188 29.6271 27.6649 28.3971 27.9172 27.1607C28.9076 22.2341 32.7555 18.3861 37.6821 17.3958C38.9185 17.1434 40.1485 16.8974 41.2461 16.683Z" fill="black"/>
<path fill-rule="evenodd" clip-rule="evenodd" d="M9.49376 25.84C9.41943 25.4527 9.07516 25.1711 8.68004 25.175C8.28491 25.1711 7.94064 25.4527 7.86631 25.84C7.66288 26.8494 7.45163 27.9135 7.26776 28.8406C6.93914 30.4837 5.65596 31.7669 4.01286 32.0955C3.08568 32.2794 2.02159 32.4907 1.01226 32.6941C0.624959 32.7684 0.343278 33.1127 0.34719 33.5078C0.343278 33.9029 0.624959 34.2472 1.01226 34.3215C2.02159 34.525 3.08568 34.7362 4.01286 34.9201C5.65596 35.2487 6.93914 36.5319 7.26776 38.175C7.45163 39.1022 7.66288 40.1663 7.86631 41.1756C7.94064 41.5629 8.28491 41.8446 8.68004 41.8407C9.07516 41.8446 9.41943 41.5629 9.49376 41.1756C9.69719 40.1663 9.90845 39.1022 10.0923 38.175C10.4209 36.5319 11.7041 35.2487 13.3472 34.9201C14.2744 34.7362 15.3385 34.525 16.3478 34.3215C16.7351 34.2472 17.0168 33.9029 17.0129 33.5078C17.0168 33.1127 16.7351 32.7684 16.3478 32.6941C15.3385 32.4907 14.2744 32.2794 13.3472 32.0955C11.7041 31.7669 10.4209 30.4837 10.0923 28.8406C9.90845 27.9135 9.69719 26.8494 9.49376 25.84Z" fill="black"/>
</svg>
