<svg width="84" height="84" viewBox="0 0 84 84" fill="none" xmlns="http://www.w3.org/2000/svg">
<path d="M63.961 41.668C63.961 47.5821 61.6094 53.25 57.4298 57.43C53.2501 61.6097 47.5821 63.9612 41.6678 63.9612C35.7535 63.9612 30.0858 61.6096 25.9058 57.43C21.7261 53.2503 19.3746 47.5823 19.3746 41.668C19.3746 35.7537 21.7262 30.086 25.9058 25.906C30.0855 21.7263 35.7535 19.3748 41.6678 19.3748C47.578 19.3865 53.2418 21.7381 57.4178 25.9178C61.5975 30.0936 63.9492 35.7578 63.961 41.668ZM41.668 68.918C40.8985 68.9063 40.1563 69.2032 39.6094 69.7461C39.0586 70.2852 38.75 71.0234 38.75 71.793V80.418C38.75 82.0274 40.0586 83.336 41.668 83.336C43.2774 83.336 44.586 82.0274 44.586 80.418V71.793C44.586 71.0235 44.2775 70.2852 43.7267 69.7461C43.1798 69.2032 42.4375 68.9063 41.668 68.918ZM18.293 60.918L12.211 67C11.0665 68.1562 11.0665 70.0156 12.211 71.168C12.7423 71.7266 13.4805 72.043 14.2501 72.043C15.0353 72.043 15.7853 71.7266 16.336 71.168L22.418 65.086C23.5703 63.9337 23.5703 62.0704 22.418 60.918C21.2657 59.7656 19.4024 59.7657 18.25 60.918H18.293ZM14.418 41.668C14.4297 40.8985 14.1329 40.1563 13.5899 39.6094C13.0508 39.0586 12.3126 38.75 11.543 38.75H2.918C1.3086 38.75 0 40.0586 0 41.668C0 43.2774 1.3086 44.586 2.918 44.586H11.543C12.3125 44.586 13.0508 44.2775 13.5899 43.7267C14.1329 43.1798 14.4297 42.4375 14.418 41.668ZM18.293 22.418C19.4453 23.5625 21.3047 23.5625 22.461 22.418C23.6055 21.2657 23.6055 19.4063 22.461 18.25L16.336 12.2109C15.1837 11.0586 13.3204 11.0586 12.168 12.2109C11.0157 13.3593 11.0157 15.2265 12.168 16.375L18.293 22.418ZM41.668 14.418C42.4376 14.4297 43.1797 14.1329 43.7266 13.5899C44.2774 13.0508 44.586 12.3126 44.586 11.543V2.918C44.586 1.3086 43.2774 0 41.668 0C40.0586 0 38.75 1.3086 38.75 2.918V11.543C38.75 12.3125 39.0586 13.0508 39.6094 13.5899C40.1563 14.1329 40.8985 14.4297 41.668 14.418ZM63 23.25C63.7656 23.2461 64.4961 22.9492 65.043 22.418L71.125 16.336C72.2773 15.1837 72.2773 13.3204 71.125 12.168C69.9766 11.0157 68.1094 11.0157 66.9609 12.168L60.9179 18.293C59.7734 19.4453 59.7734 21.3047 60.9179 22.461C61.4882 22.9727 62.2344 23.2578 63 23.25ZM80.418 38.75H71.836C70.2227 38.75 68.918 40.0586 68.918 41.668C68.918 43.2774 70.2227 44.586 71.836 44.586H80.418C82.0274 44.586 83.336 43.2774 83.336 41.668C83.336 40.0586 82.0274 38.75 80.418 38.75ZM65.043 60.918C63.8907 59.7657 62.0274 59.7657 60.875 60.918C59.7266 62.0703 59.7266 63.9336 60.875 65.086L66.957 71.168H66.9609C67.5078 71.7266 68.2578 72.043 69.0429 72.043C69.8125 72.043 70.5507 71.7266 71.0859 71.168C72.2304 70.0157 72.2304 68.1563 71.0859 67L65.043 60.918Z" fill="black"/>
</svg>
